<svg xmlns="http://www.w3.org/2000/svg" width="220" height="100" viewBox="0 0 220 100">
  <defs>
    <style>
      .red {
        fill: #aa2323;
      }

      .red, .gray {
        fill-rule: evenodd;
      }

      .gray {
        fill: #696969;
      }
    </style>
  </defs>
  <path id="northern" class="red" d="M8.99,53.828V20.576L30.138,53.828h5.287v-42.3H30.138V44.854L8.99,11.533H3.7v42.3H8.99Zm35.816-3.965a13.045,13.045,0,0,0,10.34,4.452,13.254,13.254,0,0,0,10.41-4.452q3.885-4.451,3.886-11.9t-3.886-11.9a13.258,13.258,0,0,0-10.41-4.452,13.048,13.048,0,0,0-10.34,4.452q-3.887,4.453-3.886,11.9t3.886,11.9h0Zm3.418-20.671a8.932,8.932,0,0,1,13.913,0q2.573,3.261,2.574,8.74a14.02,14.02,0,0,1-2.574,8.81,8.932,8.932,0,0,1-13.913,0,14.014,14.014,0,0,1-2.574-8.81q0-5.478,2.574-8.74h0ZM79.738,53.828V37.438a10.776,10.776,0,0,1,2.713-7.392,8.686,8.686,0,0,1,6.817-3.209h2.087v-4.73H89.268a10.715,10.715,0,0,0-5.774,1.6,8.407,8.407,0,0,0-3.757,4.452v-5.5h-4.73V53.828h4.73ZM92.328,22.663v4.244h4.243V48.541a5.226,5.226,0,0,0,5.287,5.287H106.1V49.1h-2.713a2.14,2.14,0,0,1-2.087-2.087v-20.1h4.8V22.663h-4.8V13.619h-4.73v9.044H92.328Zm23.165,31.165v-21.2L116.05,32q4.242-5.16,7.374-5.161a6.635,6.635,0,0,1,4.452,1.6,5.43,5.43,0,0,1,1.948,4.185v21.2h4.73V32.68a10.024,10.024,0,0,0-3.13-7.444,10.226,10.226,0,0,0-12.105-1.965,12.647,12.647,0,0,0-3.826,3.016V11.533h-4.73v42.3h4.73Zm27.687-3.965a11.747,11.747,0,0,0,9.6,4.452,13.193,13.193,0,0,0,8.765-2.852,10.654,10.654,0,0,0,3.9-7.652H160.71a6.374,6.374,0,0,1-2.434,4.541,8.54,8.54,0,0,1-5.5,1.72,7.6,7.6,0,0,1-6.191-2.9,11.717,11.717,0,0,1-2.3-7.6H166v-1.6q0-7.443-3.617-11.9a12.576,12.576,0,0,0-19.2,0q-3.618,4.453-3.617,11.9t3.617,11.9h0Zm3.826-21.426a7.763,7.763,0,0,1,11.548,0,11.412,11.412,0,0,1,2.643,6.887h-16.9a11.175,11.175,0,0,1,2.713-6.887h0Zm28.939,25.391V37.438a10.775,10.775,0,0,1,2.713-7.392,8.686,8.686,0,0,1,6.817-3.209h2.087v-4.73h-2.087a10.712,10.712,0,0,0-5.773,1.6,8.408,8.408,0,0,0-3.757,4.452v-5.5h-4.73V53.828h4.73Zm20.382,0V34.28a7.171,7.171,0,0,1,2.365-5.426,7.937,7.937,0,0,1,5.635-2.226,7.7,7.7,0,0,1,5.565,2.226,7.272,7.272,0,0,1,2.3,5.426V53.828h4.73V34.28a11.8,11.8,0,0,0-3.468-8.556,11.207,11.207,0,0,0-8.395-3.617,12.813,12.813,0,0,0-5.064.974,7.933,7.933,0,0,0-3.677,3.27l0.013-3.2H191.6V53.828h4.731Z"/>
  <path id="fabrications" class="gray" d="M6.271,84.922V73.793H17.4V72.368H6.271v-8.78H18.863v-1.5H4.73V84.922h1.54Zm14.9,0L24.1,77.605H34.652l2.927,7.317H39.35L30.416,62.086H28.49l-9.05,22.836h1.733Zm3.389-8.78,4.814-12.285,4.7,12.285H24.562Zm17.56,8.78H52.751a5.773,5.773,0,0,0,4.313-1.887,6.4,6.4,0,0,0,1.771-4.544,6.032,6.032,0,0,0-1.155-3.658,4.642,4.642,0,0,0-2.965-1.887,3.135,3.135,0,0,0,2.2-1.771,7.218,7.218,0,0,0,.886-3.658,5.547,5.547,0,0,0-1.463-3.851,4.775,4.775,0,0,0-3.581-1.579H42.122V84.922Zm1.54-1.463V73.793h8.78a4.739,4.739,0,0,1,3.427,1.386,4.383,4.383,0,0,1,1.425,3.312A4.847,4.847,0,0,1,55.87,82a4.612,4.612,0,0,1-3.427,1.463h-8.78Zm0-11.091v-8.78h8.78a3.614,3.614,0,0,1,2.7,1.155,3.849,3.849,0,0,1,1.117,2.773,5.387,5.387,0,0,1-1.117,3.427,3.33,3.33,0,0,1-2.7,1.425h-8.78ZM63.957,84.922V74.37h9.088A3.141,3.141,0,0,1,75.7,75.988a6.927,6.927,0,0,1,1.117,3.966l0.116,3.273a3.22,3.22,0,0,0,.5,1.694h1.54a3.332,3.332,0,0,1-.308-1.348q-0.078-.809-0.077-2.426a12.354,12.354,0,0,0-.886-4.929,3.807,3.807,0,0,0-2.311-2.426,3.853,3.853,0,0,0,2.58-1.887,7.1,7.1,0,0,0,1-3.812,5.9,5.9,0,0,0-1.656-4.236,5.285,5.285,0,0,0-4-1.772h-10.9V84.922h1.54Zm0-11.976V63.588h9.088a4.2,4.2,0,0,1,3.119,1.348,4.733,4.733,0,0,1,1.271,3.312,4.645,4.645,0,0,1-1.271,3.312,4.146,4.146,0,0,1-3.119,1.386H63.957Zm20.6,11.976V62.086h-1.54V84.922h1.54ZM98.653,85.5a8.989,8.989,0,0,0,6.277-2.233,8.61,8.61,0,0,0,2.811-5.969H106.2a7.155,7.155,0,0,1-2.349,4.929,7.45,7.45,0,0,1-5.2,1.849,8.014,8.014,0,0,1-6.315-3.081,11.966,11.966,0,0,1,0-14.942,8.248,8.248,0,0,1,11.283-1.5,6.151,6.151,0,0,1,2.58,3.967h1.54a7.943,7.943,0,0,0-3.042-5.083,9.916,9.916,0,0,0-13.44,1.579,12.531,12.531,0,0,0-3.081,8.51A12.386,12.386,0,0,0,91.259,82a9.442,9.442,0,0,0,7.394,3.5h0Zm11.9-.578,2.927-7.317h10.552l2.926,7.317h1.772L119.8,62.086h-1.926l-9.05,22.836h1.733Zm3.389-8.78,4.814-12.285,4.7,12.285h-9.512Zm24.607,8.78V63.588h7.9v-1.5H129.191v1.5h7.817V84.922h1.54Zm12.054,0V62.086h-1.541V84.922H150.6Zm13.863,0.27a9.3,9.3,0,0,0,7.394-3.2,12.473,12.473,0,0,0,2.772-8.472,13.079,13.079,0,0,0-2.772-8.742,9.988,9.988,0,0,0-14.788,0,13.079,13.079,0,0,0-2.773,8.742A12.474,12.474,0,0,0,157.071,82a9.3,9.3,0,0,0,7.394,3.2h0Zm0-1.425a7.763,7.763,0,0,1-6.277-2.811,11.118,11.118,0,0,1-2.349-7.432,11.775,11.775,0,0,1,2.349-7.663,8.265,8.265,0,0,1,12.554,0,11.775,11.775,0,0,1,2.349,7.663,11.118,11.118,0,0,1-2.349,7.432,7.763,7.763,0,0,1-6.277,2.811h0Zm15.4,1.155V64.281l13.787,20.641h2.118V62.086h-1.541V83.035L180.446,62.086h-2.118V84.922h1.54Zm27.3,0.578a9.5,9.5,0,0,0,6.046-1.964,5.853,5.853,0,0,0,2.5-4.737,5.322,5.322,0,0,0-2.118-4.275,10.316,10.316,0,0,0-5.7-2.041,10.147,10.147,0,0,1-4.968-1.579,3.862,3.862,0,0,1-1.848-3.235,4.034,4.034,0,0,1,1.771-3.312,6.884,6.884,0,0,1,4.313-1.386,7.538,7.538,0,0,1,4.7,1.463,4.28,4.28,0,0,1,1.964,3.5h1.541a5.63,5.63,0,0,0-2.388-4.544,9.19,9.19,0,0,0-5.815-1.887,8.29,8.29,0,0,0-5.391,1.81,5.383,5.383,0,0,0-.039,8.7A10.505,10.505,0,0,0,207.6,74.1a9.557,9.557,0,0,1,4.775,1.54,3.758,3.758,0,0,1,1.81,3.158,4.56,4.56,0,0,1-2.041,3.735,8.113,8.113,0,0,1-4.968,1.54,6.327,6.327,0,0,1-4.544-1.81,5.814,5.814,0,0,1-1.887-4.352H199.2a7.045,7.045,0,0,0,2.349,5.353,7.786,7.786,0,0,0,5.622,2.233h0Z"/>
</svg>
